<svg id="visual" viewBox="0 0 900 30" width="900" height="30" xmlns="http://www.w3.org/2000/svg" xmlns:xlink="http://www.w3.org/1999/xlink" version="1.1"><path d="M0 13L5 13.8C10 14.7 20 16.3 30 14.3C40 12.3 50 6.7 60 8C70 9.3 80 17.7 90 22C100 26.3 110 26.7 120 23C130 19.3 140 11.7 150 7.5C160 3.3 170 2.7 180 5.2C190 7.7 200 13.3 210 15C220 16.7 230 14.3 240 14.7C250 15 260 18 270 17.2C280 16.3 290 11.7 300 11.7C310 11.7 320 16.3 330 18.8C340 21.3 350 21.7 360 22.2C370 22.7 380 23.3 390 21.8C400 20.3 410 16.7 420 16.3C430 16 440 19 450 18.8C460 18.7 470 15.3 480 14.8C490 14.3 500 16.7 510 16.3C520 16 530 13 540 14C550 15 560 20 570 20.8C580 21.7 590 18.3 600 18C610 17.7 620 20.3 630 19.8C640 19.3 650 15.7 660 14.8C670 14 680 16 690 16.8C700 17.7 710 17.3 720 17.8C730 18.3 740 19.7 750 19.7C760 19.7 770 18.3 780 16.5C790 14.7 800 12.3 810 13.8C820 15.3 830 20.7 840 19.3C850 18 860 10 870 9.5C880 9 890 16 895 19.5L900 23L900 31L895 31C890 31 880 31 870 31C860 31 850 31 840 31C830 31 820 31 810 31C800 31 790 31 780 31C770 31 760 31 750 31C740 31 730 31 720 31C710 31 700 31 690 31C680 31 670 31 660 31C650 31 640 31 630 31C620 31 610 31 600 31C590 31 580 31 570 31C560 31 550 31 540 31C530 31 520 31 510 31C500 31 490 31 480 31C470 31 460 31 450 31C440 31 430 31 420 31C410 31 400 31 390 31C380 31 370 31 360 31C350 31 340 31 330 31C320 31 310 31 300 31C290 31 280 31 270 31C260 31 250 31 240 31C230 31 220 31 210 31C200 31 190 31 180 31C170 31 160 31 150 31C140 31 130 31 120 31C110 31 100 31 90 31C80 31 70 31 60 31C50 31 40 31 30 31C20 31 10 31 5 31L0 31Z" fill="#f4ede3" stroke-linecap="round" stroke-linejoin="miter"></path></svg>