<svg id="visual" viewBox="0 0 900 40" width="900" height="40" xmlns="http://www.w3.org/2000/svg" xmlns:xlink="http://www.w3.org/1999/xlink" version="1.1"><path d="M0 9L8.3 9.8C16.7 10.7 33.3 12.3 50 17.2C66.7 22 83.3 30 100 30.3C116.7 30.7 133.3 23.3 150 19.7C166.7 16 183.3 16 200 17.7C216.7 19.3 233.3 22.7 250 24.3C266.7 26 283.3 26 300 25.5C316.7 25 333.3 24 350 19.7C366.7 15.3 383.3 7.7 400 9C416.7 10.3 433.3 20.7 450 24.5C466.7 28.3 483.3 25.7 500 21.3C516.7 17 533.3 11 550 9.8C566.7 8.7 583.3 12.3 600 14.7C616.7 17 633.3 18 650 19.8C666.7 21.7 683.3 24.3 700 24C716.7 23.7 733.3 20.3 750 17.8C766.7 15.3 783.3 13.7 800 14.2C816.7 14.7 833.3 17.3 850 18C866.7 18.7 883.3 17.3 891.7 16.7L900 16L900 0L891.7 0C883.3 0 866.7 0 850 0C833.3 0 816.7 0 800 0C783.3 0 766.7 0 750 0C733.3 0 716.7 0 700 0C683.3 0 666.7 0 650 0C633.3 0 616.7 0 600 0C583.3 0 566.7 0 550 0C533.3 0 516.7 0 500 0C483.3 0 466.7 0 450 0C433.3 0 416.7 0 400 0C383.3 0 366.7 0 350 0C333.3 0 316.7 0 300 0C283.3 0 266.7 0 250 0C233.3 0 216.7 0 200 0C183.3 0 166.7 0 150 0C133.3 0 116.7 0 100 0C83.3 0 66.7 0 50 0C33.3 0 16.7 0 8.3 0L0 0Z" fill="#F0B538" stroke-linecap="round" stroke-linejoin="miter"></path></svg>