<svg id="visual" viewBox="0 0 900 40" width="900" height="40" xmlns="http://www.w3.org/2000/svg" xmlns:xlink="http://www.w3.org/1999/xlink" version="1.1"><path d="M0 29L8.3 28.2C16.7 27.3 33.3 25.7 50 20.8C66.7 16 83.3 8 100 7.7C116.7 7.3 133.3 14.7 150 18.3C166.7 22 183.3 22 200 20.3C216.7 18.7 233.3 15.3 250 13.7C266.7 12 283.3 12 300 12.5C316.7 13 333.3 14 350 18.5C366.7 23 383.3 31 400 29.7C416.7 28.3 433.3 17.7 450 13.7C466.7 9.7 483.3 12.3 500 16.7C516.7 21 533.3 27 550 28.2C566.7 29.3 583.3 25.7 600 23.3C616.7 21 633.3 20 650 18.2C666.7 16.3 683.3 13.7 700 14C716.7 14.3 733.3 17.7 750 20.2C766.7 22.7 783.3 24.3 800 23.8C816.7 23.3 833.3 20.7 850 20C866.7 19.3 883.3 20.7 891.7 21.3L900 22L900 41L891.7 41C883.3 41 866.7 41 850 41C833.3 41 816.7 41 800 41C783.3 41 766.7 41 750 41C733.3 41 716.7 41 700 41C683.3 41 666.7 41 650 41C633.3 41 616.7 41 600 41C583.3 41 566.7 41 550 41C533.3 41 516.7 41 500 41C483.3 41 466.7 41 450 41C433.3 41 416.7 41 400 41C383.3 41 366.7 41 350 41C333.3 41 316.7 41 300 41C283.3 41 266.7 41 250 41C233.3 41 216.7 41 200 41C183.3 41 166.7 41 150 41C133.3 41 116.7 41 100 41C83.3 41 66.7 41 50 41C33.3 41 16.7 41 8.3 41L0 41Z" fill="#F0B538" stroke-linecap="round" stroke-linejoin="miter"></path></svg>