<svg id="visual" viewBox="0 0 900 30" width="900" height="30" xmlns="http://www.w3.org/2000/svg" xmlns:xlink="http://www.w3.org/1999/xlink" version="1.1"><path d="M0 15L5 14.2C10 13.3 20 11.7 30 13.7C40 15.7 50 21.3 60 20C70 18.7 80 10.3 90 6C100 1.7 110 1.3 120 5C130 8.7 140 16.3 150 20.5C160 24.7 170 25.3 180 22.8C190 20.3 200 14.7 210 13C220 11.3 230 13.7 240 13.3C250 13 260 10 270 10.8C280 11.7 290 16.3 300 16.3C310 16.3 320 11.7 330 9.2C340 6.7 350 6.3 360 5.8C370 5.3 380 4.7 390 6.2C400 7.7 410 11.3 420 11.7C430 12 440 9 450 9.2C460 9.3 470 12.7 480 13.2C490 13.7 500 11.3 510 11.7C520 12 530 15 540 14C550 13 560 8 570 7.2C580 6.3 590 9.7 600 10C610 10.3 620 7.7 630 8.2C640 8.7 650 12.3 660 13.2C670 14 680 12 690 11.2C700 10.3 710 10.7 720 10.2C730 9.7 740 8.3 750 8.3C760 8.3 770 9.7 780 11.5C790 13.3 800 15.7 810 14.2C820 12.7 830 7.3 840 8.7C850 10 860 18 870 18.5C880 19 890 12 895 8.5L900 5L900 0L895 0C890 0 880 0 870 0C860 0 850 0 840 0C830 0 820 0 810 0C800 0 790 0 780 0C770 0 760 0 750 0C740 0 730 0 720 0C710 0 700 0 690 0C680 0 670 0 660 0C650 0 640 0 630 0C620 0 610 0 600 0C590 0 580 0 570 0C560 0 550 0 540 0C530 0 520 0 510 0C500 0 490 0 480 0C470 0 460 0 450 0C440 0 430 0 420 0C410 0 400 0 390 0C380 0 370 0 360 0C350 0 340 0 330 0C320 0 310 0 300 0C290 0 280 0 270 0C260 0 250 0 240 0C230 0 220 0 210 0C200 0 190 0 180 0C170 0 160 0 150 0C140 0 130 0 120 0C110 0 100 0 90 0C80 0 70 0 60 0C50 0 40 0 30 0C20 0 10 0 5 0L0 0Z" fill="#f4ede3" stroke-linecap="round" stroke-linejoin="miter"></path></svg>